<?xml version="1.0" encoding="UTF-8"?>
<svg width="1010px" height="729px" viewBox="0 0 1010 729" version="1.1" xmlns="http://www.w3.org/2000/svg" xmlns:xlink="http://www.w3.org/1999/xlink">
    <!-- Generator: Sketch 55 (78076) - https://sketchapp.com -->
    <title>in_progress</title>
    <desc>Created with Sketch.</desc>
    <defs>
        <linearGradient x1="49.9914162%" y1="100.005755%" x2="49.9914162%" y2="-0.0122493752%" id="linearGradient-1">
            <stop stop-color="#808080" stop-opacity="0.25" offset="0%"></stop>
            <stop stop-color="#808080" stop-opacity="0.12" offset="54%"></stop>
            <stop stop-color="#808080" stop-opacity="0.1" offset="100%"></stop>
        </linearGradient>
    </defs>
    <g id="Page-1" stroke="none" stroke-width="1" fill="none" fill-rule="evenodd">
        <g id="in_progress" transform="translate(-1.000000, 0.000000)" fill-rule="nonzero">
            <path d="M587.55,83.2 C522.83,81.53 461.19,66.01 402.33,49.03 C343.47,32.05 285.17,13.2 222,4.2 C181.37,-1.59 134.9,-2.41 102.17,13.78 C70.66,29.34 60.48,56.2 55.01,81.2 C50.89,99.97 48.47,119.72 59.75,137.29 C67.59,149.49 81.49,159.74 91.11,171.43 C124.58,212.09 100.92,262.22 64.66,301.92 C47.66,320.54 27.91,338.3 14.78,358.13 C1.65,377.96 -4.42,400.66 7.07,420.89 C18.45,440.89 45.58,455.98 74.97,466.57 C134.66,488.08 204.97,494.23 273.58,497.72 C425.41,505.44 578.04,502.09 730.27,498.72 C786.61,497.48 843.19,496.23 898.61,489.72 C929.39,486.13 961.16,480.42 983.51,466.65 C1011.87,449.17 1018.9,419.57 999.89,397.65 C968.01,360.88 879.89,351.74 857.58,312.28 C845.32,290.56 857.91,266.37 875.74,246.22 C913.98,203.01 978.07,165.1 981.44,115.7 C983.76,81.78 952.95,47.8 905.31,31.75 C855.38,14.93 786.13,17.04 749.31,44.89 C711.36,73.6 644.7,84.64 587.55,83.2 Z" id="Path" fill="#0F66DC" opacity="0.1"></path>
            <ellipse id="Oval" fill="#0F66DC" opacity="0.1" cx="263.87" cy="712.89" rx="218" ry="15.5"></ellipse>
            <path d="M390.16,628.5 C393.16,623.11 396.75,618.03 399.65,612.57 C402.3,607.57 404.37,602.27 406.76,597.13 C410.85,588.33 415.89,580.01 420.48,571.45 C423.48,565.84 426.38,559.73 425.8,553.39 C425.25,547.39 421.73,542.19 420.37,536.39 C414.83,512.58 401.5,490.72 393.37,467.69 C391.29,461.85 389.27,455.97 386.67,450.33 C381.67,439.48 374.67,429.73 367.67,420.06 C365.147495,416.36556 362.338867,412.874838 359.27,409.62 C356.76,407.11 353.94,404.9 351.66,402.18 C346.96,396.58 344.76,388.52 338.88,384.18 C338.78,384.44 338.67,384.69 338.56,384.95 C334.35,374.2 320.23,367.11 312.04,358.2 C307.272191,352.758508 302.885128,346.994849 298.91,340.95 L281.08,315.18 C278.01,310.74 274.88,306.18 273.64,300.89 C272.12,294.51 273.53,287.71 272.03,281.33 C271.070824,277.489429 269.201536,273.936067 266.58,270.97 C266.75,270.92 266.93,270.85 267.11,270.81 C270.51,269.9 274.11,269.74 277.48,268.93 C284.83,267.18 291.22,262.48 298.54,260.6 C302.28,259.6 306.27,259.4 309.66,257.6 C313.03976,255.577662 314.766076,251.635239 313.96,247.78 C311.59,235.23 318.21,222.51 317.09,209.78 C316.79,206.26 315.89,202.83 315.31,199.34 C313.96,191.24 314.21,182.94 314.69,174.72 C316.972174,171.01567 319.710237,167.612409 322.84,164.59 C327.34,160.25 332.71,156.59 335.84,151.16 C338.57,146.35 339.23,140.54 338.54,135.04 C338.05,131.04 336.69,126.83 333.54,124.4 C330.39,121.97 325.87,121.79 322.06,123.06 C321.53,123.23 321.01,123.44 320.5,123.66 C317.28178,122.049269 313.542925,121.832314 310.16,123.06 C306.36,124.32 303.1,126.83 300.04,129.44 C298.226343,130.862197 296.635435,132.547481 295.32,134.44 C293.39,137.44 292.83,141.14 292.1,144.67 C290.547741,151.48442 288.285377,158.117336 285.35,164.46 C284.81,165.58 283.35,167.59 282.17,169.51 L280.03,169.07 C279.1,177.98 271.64,184.52 267.1,192.22 C264.89,195.96 263.34,200.05 261.35,203.92 C259.079312,208.132747 256.544244,212.19754 253.76,216.09 C251.06,220.09 248.356667,224.053333 245.65,227.98 C242.257833,233.137167 238.585663,238.104611 234.65,242.86 C230.98,242.56 227.31,242.29 223.65,242.23 C217.506843,242.141957 211.371002,242.688184 205.34,243.86 C204.988452,241.739168 204.771352,239.598231 204.69,237.45 C204.69,237.32 204.69,237.19 204.69,237.06 C204.69,236.54 204.75,235.92 204.82,235.25 C215.38458,228.175007 221.576375,216.171066 221.217011,203.461355 C220.857647,190.751645 213.99747,179.116745 203.05,172.65 C203.248654,171.525874 203.375577,170.390246 203.43,169.25 C203.43,168.58 203.43,167.9 203.43,167.25 C203.43,166.91 203.43,166.57 203.36,166.25 C203.298062,165.575609 203.184394,164.906974 203.02,164.25 C202.94,163.93 202.85,163.61 202.74,163.25 C202.527198,162.622563 202.249001,162.019245 201.91,161.45 C201.889065,161.415051 201.865672,161.381633 201.84,161.35 C201.71,161.14 201.58,160.93 201.43,160.73 C201.28,160.53 201.3,160.57 201.24,160.49 C201.134677,160.343701 201.021162,160.203477 200.9,160.07 L200.65,159.81 C200.54,159.69 200.43,159.57 200.31,159.46 L200.03,159.21 L199.68,158.9 L199.36,158.66 L199,158.39 L198.65,158.16 L198.29,157.93 C198.17,157.85 198.04,157.78 197.91,157.71 L197.54,157.5 L197.14,157.3 L196.77,157.12 L196.33,156.93 L195.97,156.77 L195.49,156.59 L195.15,156.46 L194.63,156.28 L194.32,156.18 L193.75,156 L193.48,155.92 L192.86,155.75 L192.62,155.68 L191.97,155.52 L191.78,155.47 L191.06,155.31 L190.94,155.31 L189.88,155.08 C185.5,154.18 181.093333,153.403333 176.66,152.75 C173.03,152.21 169.31,151.75 165.73,152.56 C160.79,153.66 156.67,157 152.05,159.07 C146.59,161.53 140.53,162.18 134.71,163.53 C128.89,164.88 122.9,167.19 119.25,171.96 C116.47,175.6 115.36,180.23 114.53,184.74 C107.61,222.38 115.07,260.99 116.48,299.25 C117.03,314.14 116.36,330.06 107.92,342.25 L132.5,341.6 C133.68,341.6 134.87,341.53 136.07,341.46 C137.27,341.39 138.47,341.3 139.65,341.16 C142.767308,340.867793 145.79572,339.960289 148.56,338.49 C149.840081,337.760942 151.008701,336.85164 152.03,335.79 C155.37,332.35 157.15,327.54 158.78,322.94 C159.33,321.39 159.88,319.82 160.37,318.24 C160.57,317.58 160.76,316.92 160.93,316.24 L161.01,315.92 L161.29,316.05 C162.29,317.93 163.42,319.77 164.62,321.55 C168.91,327.87 174.35,333.27 179.75,338.64 C190.48,349.29 201.45,360.13 214.9,366.97 C219.44,369.26 224.35,371.19 227.81,374.97 C229.51,376.8 230.98,379.15 233.39,379.78 C234.89,380.17 236.54,379.78 237.97,380.42 C240.07,381.3 240.84,383.83 241.81,385.91 C242.78,387.99 244.97,390.11 247.05,389.16 C246.254593,393.10023 247.776291,397.149034 250.97,399.59 C251.97737,400.149294 252.845588,400.928639 253.51,401.87 C253.830245,402.728459 254.00596,403.634069 254.03,404.55 C254.457382,407.10394 255.805691,409.412786 257.82,411.04 C255.87,414.27 257.43,418.9 257.48,422.93 C257.48,426.31 256.37,429.57 255.61,432.86 C253.4,442.51 254.61,452.61 256.41,462.34 C257.41,467.71 258.68,473.27 262.18,477.44 C263.32,478.79 264.68,479.96 265.88,481.27 C268.170686,483.850988 270.073928,486.751327 271.53,489.88 C274.564922,496.074964 276.632265,502.698556 277.66,509.52 C278.143094,512.942819 279.119922,516.277509 280.56,519.42 C282.75,524.2 280.75,530.08 282.71,534.96 C283.6,537.15 285.24,539.02 285.77,541.31 C286.52,544.64 284.77,547.97 284.3,551.36 C283.16,559.3 288.89,566.67 289.41,574.67 C289.495161,575.139282 289.394773,575.623297 289.13,576.02 C288.74,576.46 288.07,576.45 287.54,576.7 C286.54,577.18 286.27,578.53 285.95,579.65 C285.63,580.77 284.73,582.04 283.62,581.7 C267.19,590.49 250.18,598.61 233.75,607.4 L226.25,611.4 L186.14,632.83 C185.146356,633.323473 184.521328,634.3406 184.53,635.45 C184.53,635.93 184.59,636.45 184.63,636.9 C181.82,637.6 179.12,638.44 177.2,638.79 C176.41,638.94 175.62,639.09 174.84,639.26 C175.029727,638.95605 175.152457,638.615136 175.2,638.26 C175.206769,637.239353 174.443901,636.377355 173.43,636.26 C172.450267,636.163047 171.461368,636.293075 170.54,636.64 C168.247212,637.266598 165.905532,637.698137 163.54,637.93 C160.73,638.2 157.87,638.19 155.15,638.93 C152.43,639.67 149.75,641.32 148.65,643.93 C148.099665,645.440095 147.854925,647.044504 147.93,648.65 C147.869088,654.83142 148.601739,660.995101 150.11,666.99 C150.158382,667.472221 150.428136,667.904567 150.84,668.16 C151.19,668.3 151.61,668.16 151.96,668.32 C152.26807,668.506451 152.498784,668.797506 152.61,669.14 C154.29,672.96 154.68,677.22 155.13,681.38 C155.796667,687.546667 156.64,693.696667 157.66,699.83 C158.26,703.41 159,707.15 161.33,709.91 C163.89,712.91 167.94,714.24 171.85,714.77 C180.1,715.88 188.43,714.21 196.57,712.5 C198.09,712.18 199.72,711.79 200.74,710.61 C201.485828,709.668158 201.843559,708.476913 201.74,707.28 C201.55,703.17 197.81,700.28 194.41,697.97 L189.77,694.76 C188.955424,694.327371 188.542338,693.393796 188.77,692.5 L189.07,686.43 L188.17,686.43 C189.17,682.15 190.78,678.04 193.93,675.1 C196.1,673.1 198.93,671.7 201.2,669.88 C204.11242,672.11943 207.640357,673.414054 211.31,673.59 C217.31,665.51 225.76,660.01 234.21,654.59 C241.073194,650.254532 248.166994,646.295358 255.46,642.73 C261.366667,639.81 267.366667,637.073333 273.46,634.52 C282.06,630.9 290.82,627.67 299.59,624.52 C305.44,622.42 311.34,620.35 316.73,617.25 C330.73,609.16 340.62,593.01 338.73,576.84 C336.35,556.44 341.44,535.18 341.1,514.64 C341,508.64 340.78,502.64 338.96,496.89 C339.383371,497.190197 339.781376,497.524654 340.15,497.89 C343.79,501.29 344.67,506.69 348.15,510.57 C350.86,513.62 354.98,515.57 356.62,519.29 C357.87,522.14 357.69,525.99 360.3,527.63 C361.04,528.1 361.92,528.3 362.66,528.76 C363.545289,529.390906 364.29084,530.197735 364.85,531.13 C367.62,535.08 370.49,539.31 370.79,544.13 C370.92,546.04 370.74,548.25 372.14,549.54 C372.54,549.91 373.05,550.18 373.26,550.68 C373.7,551.68 372.54,552.74 372.34,553.85 C372.05,555.39 373.57,556.56 374.51,557.85 C376.119309,560.057867 376.119309,563.052133 374.51,565.26 C366.31,575.91 364.83,590.26 357.66,601.65 C355.18,605.58 352.42,609.3 350.02,613.28 C342.64,625.5 338.91,639.54 335.29,653.37 C336.836522,656.062446 338.931841,658.399663 341.44,660.23 C340.08506,664.886976 337.749456,669.200173 334.59,672.88 C333.783583,673.77969 333.02903,674.724552 332.33,675.71 C331.743545,674.967509 330.975464,674.388865 330.1,674.03 C328.784975,679.770867 328.114164,685.640463 328.1,691.53 C328.1,695.41 328.63,699.84 331.78,702.08 C333.037178,702.872072 334.420396,703.443621 335.87,703.77 L342.73,705.77 C343.93689,706.232692 345.24641,706.360535 346.52,706.14 C347.33,705.91 348.05,705.41 348.88,705.25 C349.78184,705.156796 350.692965,705.276681 351.54,705.6 L357.47,707.33 C359.475038,707.863826 361.434528,708.556 363.33,709.4 C365.02,710.21 366.58,711.26 368.24,712.16 C371.000548,713.554923 373.865949,714.731844 376.81,715.68 L387.03,719.2 C389.877355,720.328584 392.853224,721.101101 395.89,721.5 C397.99,721.68 400.12,721.5 402.19,721.86 C403.77,722.13 405.3,722.7 406.89,722.86 C409.528662,722.938411 412.122736,722.1672 414.29,720.66 C415.136595,720.181884 415.867291,719.522892 416.43,718.73 C417.93,716.39 416.64,713.3 415.18,710.94 C412.47,706.56 409.08,702.46 404.61,699.94 C402.8,698.94 400.84,698.2 398.97,697.28 C393.65,694.68 389.64,690.34 384.61,687.37 C383.287479,686.42834 381.484451,686.549658 380.3,687.66 C376.12,684.95 371.6,682.3 369.3,677.89 C368.275318,675.761947 367.600007,673.482772 367.3,671.14 C369.65,671.7 372.02,672.14 374.41,672.53 C378.3,657.45 382.55,642.1 390.16,628.5 Z M294.09,202.01 C293.89,203.14 293.67,204.26 293.43,205.38 C291.43,214.77 288.57,225.29 282.03,232.28 C279.87889,234.328922 277.379812,235.978043 274.65,237.15 L273.92,237.51 C278.63,224.93 286.13,213.27 294.09,202.01 Z" id="Shape" fill="url(#linearGradient-1)"></path>
            <path d="M303.77,146.31 C304.51,142.82 305.07,139.16 307,136.15 C308.319411,134.257521 309.913602,132.572329 311.73,131.15 C314.79,128.56 318.06,126.07 321.87,124.81 C325.68,123.55 330.16,123.72 333.36,126.14 C336.56,128.56 337.91,132.73 338.41,136.71 C339.09,142.18 338.41,147.94 335.7,152.71 C332.6,158.12 327.22,161.71 322.7,166.05 C319.425353,169.182929 316.577538,172.733452 314.23,176.61 C313.161706,178.630495 311.866688,180.522697 310.37,182.25 C308.830868,183.992645 306.556254,184.901748 304.24,184.7 C302.31,184.39 300.74,183.05 299.24,181.77 C297.39,180.15 292.41,177.26 292.24,174.69 C292.12,172.61 296.01,167.89 296.96,165.94 C299.915572,159.654997 302.198264,153.075081 303.77,146.31 L303.77,146.31 Z" id="Path" fill="#FBBEBE"></path>
            <path d="M303.77,146.31 C304.51,142.82 305.07,139.16 307,136.15 C308.319411,134.257521 309.913602,132.572329 311.73,131.15 C314.79,128.56 318.06,126.07 321.87,124.81 C325.68,123.55 330.16,123.72 333.36,126.14 C336.56,128.56 337.91,132.73 338.41,136.71 C339.09,142.18 338.41,147.94 335.7,152.71 C332.6,158.12 327.22,161.71 322.7,166.05 C319.425353,169.182929 316.577538,172.733452 314.23,176.61 C313.161706,178.630495 311.866688,180.522697 310.37,182.25 C308.830868,183.992645 306.556254,184.901748 304.24,184.7 C302.31,184.39 300.74,183.05 299.24,181.77 C297.39,180.15 292.41,177.26 292.24,174.69 C292.12,172.61 296.01,167.89 296.96,165.94 C299.915572,159.654997 302.198264,153.075081 303.77,146.31 L303.77,146.31 Z" id="Path" fill="#000000" opacity="0.1"></path>
            <path d="M198.77,246.26 C206.782035,244.129498 215.050723,243.11989 223.34,243.26 C237.17,243.46 251.41,246.81 264.58,242.57 C267.979871,241.390776 271.285922,239.956706 274.47,238.28 C277.12,236.96 279.82,235.6 281.85,233.44 C288.4,226.5 291.22,216.05 293.27,206.72 C295.32,197.39 295.85,187.81 296.38,178.28 C299.79,179.87 303.38,181.44 307.16,181.12 C310.94,180.8 314.71,177.92 314.69,174.12 C314.13,182.95 313.69,191.89 315.18,200.61 C315.76,204.07 316.66,207.48 316.97,210.98 C318.09,223.62 311.46,236.25 313.83,248.72 C314.632235,252.555461 312.903176,256.476002 309.53,258.47 C306.13,260.3 302.13,260.53 298.39,261.47 C291.06,263.34 284.66,268 277.3,269.74 C273.87,270.55 270.3,270.74 266.92,271.61 C262.06,272.89 257.65,275.67 252.7,276.55 C248.99,277.21 245.17,276.76 241.42,277.08 C238.16,277.35 234.96,278.21 231.69,278.29 C223.69,278.49 216.12,273.96 210.8,267.95 C205.48,261.94 202.11,253.54 198.77,246.26 Z" id="Path" fill="#0F66DC"></path>
            <path d="M198.77,246.26 C206.782035,244.129498 215.050723,243.11989 223.34,243.26 C237.17,243.46 251.41,246.81 264.58,242.57 C267.979871,241.390776 271.285922,239.956706 274.47,238.28 C277.12,236.96 279.82,235.6 281.85,233.44 C288.4,226.5 291.22,216.05 293.27,206.72 C295.32,197.39 295.85,187.81 296.38,178.28 C299.79,179.87 303.38,181.44 307.16,181.12 C310.94,180.8 314.71,177.92 314.69,174.12 C314.13,182.95 313.69,191.89 315.18,200.61 C315.76,204.07 316.66,207.48 316.97,210.98 C318.09,223.62 311.46,236.25 313.83,248.72 C314.632235,252.555461 312.903176,256.476002 309.53,258.47 C306.13,260.3 302.13,260.53 298.39,261.47 C291.06,263.34 284.66,268 277.3,269.74 C273.87,270.55 270.3,270.74 266.92,271.61 C262.06,272.89 257.65,275.67 252.7,276.55 C248.99,277.21 245.17,276.76 241.42,277.08 C238.16,277.35 234.96,278.21 231.69,278.29 C223.69,278.49 216.12,273.96 210.8,267.95 C205.48,261.94 202.11,253.54 198.77,246.26 Z" id="Path" fill="#000000" opacity="0.1"></path>
            <path d="M558.4,258.55 C586.244091,258.55 611.346285,275.32341 622.000823,301.048383 C632.655361,326.773355 626.76387,356.383451 607.073694,376.070766 C587.383519,395.758082 557.772567,401.645271 532.049143,390.986996 C506.325718,380.328722 489.555955,355.224091 489.56,327.38 C489.565522,289.364623 520.384623,258.55 558.4,258.55 L558.4,258.55 Z M558.4,241.55 C523.680051,241.55 492.37904,262.465327 479.093225,294.542764 C465.80741,326.620202 473.153349,363.5423 497.70549,388.091582 C522.257632,412.640863 559.180586,419.9825 591.256476,406.692949 C623.332365,393.403397 644.244045,362.099949 644.24,327.38 C644.184884,279.996345 605.783661,241.599596 558.4,241.55 L558.4,241.55 Z" id="Shape" fill="#3F3D56"></path>
            <rect id="Rectangle" fill="#3F3D56" x="545.69" y="221.47" width="20.12" height="21.18"></rect>
            <rect id="Rectangle" fill="#3F3D56" transform="translate(604.865872, 244.320028) rotate(31.000000) translate(-604.865872, -244.320028) " x="594.805872" y="233.730028" width="20.12" height="21.18"></rect>
            <rect id="Rectangle" fill="#3F3D56" transform="translate(640.171977, 278.677029) rotate(61.000000) translate(-640.171977, -278.677029) " x="630.111977" y="268.087029" width="20.12" height="21.18"></rect>
            <rect id="Rectangle" fill="#3F3D56" transform="translate(640.643205, 375.295519) rotate(122.000000) translate(-640.643205, -375.295519) " x="630.583205" y="364.705519" width="20.12" height="21.18"></rect>
            <rect id="Rectangle" fill="#3F3D56" transform="translate(476.634221, 278.670344) rotate(119.000000) translate(-476.634221, -278.670344) " x="466.574221" y="268.080344" width="20.12" height="21.18"></rect>
            <rect id="Rectangle" fill="#3F3D56" transform="translate(476.165623, 375.287739) rotate(58.000000) translate(-476.165623, -375.287739) " x="466.105623" y="364.697739" width="20.12" height="21.18"></rect>
            <rect id="Rectangle" fill="#3F3D56" transform="translate(511.929681, 244.318570) rotate(149.000000) translate(-511.929681, -244.318570) " x="501.869681" y="233.72857" width="20.12" height="21.18"></rect>
            <rect id="Rectangle" fill="#3F3D56" x="545.69" y="412.11" width="20.12" height="21.18"></rect>
            <rect id="Rectangle" fill="#3F3D56" transform="translate(604.868723, 410.444995) rotate(-31.000000) translate(-604.868723, -410.444995) " x="594.808723" y="399.854995" width="20.12" height="21.18"></rect>
            <rect id="Rectangle" fill="#3F3D56" transform="translate(511.932533, 410.446407) rotate(-149.000000) translate(-511.932533, -410.446407) " x="501.872533" y="399.856407" width="20.12" height="21.18"></rect>
            <rect id="Rectangle" fill="#3F3D56" x="450.38" y="318.91" width="24.36" height="18"></rect>
            <rect id="Rectangle" fill="#3F3D56" transform="translate(654.240000, 327.910000) rotate(-180.000000) translate(-654.240000, -327.910000) " x="642.06" y="318.91" width="24.36" height="18"></rect>
            <path d="M718.32,134.64 C746.164091,134.64 771.266285,151.41341 781.920823,177.138383 C792.575361,202.863355 786.68387,232.473451 766.993694,252.160766 C747.303519,271.848082 717.692567,277.735271 691.969143,267.076996 C666.245718,256.418722 649.475955,231.314091 649.48,203.47 C649.485522,165.454623 680.304623,134.64 718.32,134.64 L718.32,134.64 Z M718.32,117.64 C683.600051,117.64 652.29904,138.555327 639.013225,170.632764 C625.72741,202.710202 633.073349,239.6323 657.62549,264.181582 C682.177632,288.730863 719.100586,296.0725 751.176476,282.782949 C783.252365,269.493397 804.164045,238.189949 804.16,203.47 C804.104884,156.086345 765.703661,117.689596 718.32,117.64 Z" id="Shape" fill="#3F3D56"></path>
            <rect id="Rectangle" fill="#3F3D56" x="705.61" y="97.57" width="20.12" height="21.18"></rect>
            <rect id="Rectangle" fill="#3F3D56" transform="translate(764.792434, 120.403316) rotate(31.000000) translate(-764.792434, -120.403316) " x="754.732434" y="109.813316" width="20.12" height="21.18"></rect>
            <rect id="Rectangle" fill="#3F3D56" transform="translate(800.096860, 154.763453) rotate(61.000000) translate(-800.096860, -154.763453) " x="790.03686" y="144.173453" width="20.12" height="21.18"></rect>
            <rect id="Rectangle" fill="#3F3D56" transform="translate(800.560155, 251.387667) rotate(122.000000) translate(-800.560155, -251.387667) " x="790.500155" y="240.797667" width="20.12" height="21.18"></rect>
            <rect id="Rectangle" fill="#3F3D56" transform="translate(636.547594, 154.772287) rotate(119.000000) translate(-636.547594, -154.772287) " x="626.487594" y="144.182287" width="20.12" height="21.18"></rect>
            <rect id="Rectangle" fill="#3F3D56" transform="translate(636.081952, 251.385295) rotate(58.000000) translate(-636.081952, -251.385295) " x="626.021952" y="240.795295" width="20.12" height="21.18"></rect>
            <rect id="Rectangle" fill="#3F3D56" transform="translate(671.849854, 120.405059) rotate(149.000000) translate(-671.849854, -120.405059) " x="661.789854" y="109.815059" width="20.12" height="21.18"></rect>
            <rect id="Rectangle" fill="#3F3D56" x="705.61" y="288.2" width="20.12" height="21.18"></rect>
            <rect id="Rectangle" fill="#3F3D56" transform="translate(764.788550, 286.538506) rotate(-31.000000) translate(-764.788550, -286.538506) " x="754.72855" y="275.948506" width="20.12" height="21.18"></rect>
            <rect id="Rectangle" fill="#3F3D56" transform="translate(671.845970, 286.533119) rotate(-149.000000) translate(-671.845970, -286.533119) " x="661.78597" y="275.943119" width="20.12" height="21.18"></rect>
            <rect id="Rectangle" fill="#3F3D56" x="610.29" y="195" width="24.36" height="18"></rect>
            <rect id="Rectangle" fill="#3F3D56" transform="translate(814.170000, 204.000000) rotate(-180.000000) translate(-814.170000, -204.000000) " x="801.99" y="195" width="24.36" height="18"></rect>
            <path d="M398.44,129.34 C399.25,129.34 400.06,129.34 400.87,129.34 C438.408768,130.620243 467.992132,161.755006 467.353661,199.310171 C466.71519,236.865337 436.090592,266.976512 398.53,266.98 C397.72,266.98 396.91,266.98 396.09,266.98 C358.54929,265.699688 328.965199,234.561892 329.60643,197.00483 C330.247662,159.447767 360.877464,129.338035 398.44,129.34 L398.44,129.34 Z M398.44,112.34 L398.44,112.34 C351.600921,112.334216 313.404222,149.877578 312.601992,196.709787 C311.799762,243.541995 348.688203,282.371556 395.5,283.97 C396.5,283.97 397.5,284.02 398.5,284.02 C445.337126,284.020317 483.528606,246.475516 484.328074,199.645213 C485.127543,152.814911 448.239844,113.988388 401.43,112.39 C400.43,112.39 399.43,112.34 398.43,112.34 L398.44,112.34 Z" id="Shape" fill="#3F3D56"></path>
            <rect id="Rectangle" fill="#3F3D56" transform="translate(399.130284, 102.841911) rotate(1.990000) translate(-399.130284, -102.841911) " x="389.070284" y="92.2519113" width="20.12" height="21.18"></rect>
            <rect id="Rectangle" fill="#3F3D56" transform="translate(447.783385, 116.784911) rotate(32.990000) translate(-447.783385, -116.784911) " x="437.723385" y="106.194911" width="20.12" height="21.18"></rect>
            <rect id="Rectangle" fill="#3F3D56" transform="translate(481.881515, 152.345866) rotate(62.990000) translate(-481.881515, -152.345866) " x="471.821515" y="141.755866" width="20.12" height="21.18"></rect>
            <rect id="Rectangle" fill="#3F3D56" transform="translate(479.010894, 248.894884) rotate(123.990000) translate(-479.010894, -248.894884) " x="468.950894" y="238.304884" width="20.12" height="21.18"></rect>
            <rect id="Rectangle" fill="#3F3D56" transform="translate(318.439424, 146.652998) rotate(120.990000) translate(-318.439424, -146.652998) " x="308.379424" y="136.062998" width="20.12" height="21.18"></rect>
            <rect id="Rectangle" fill="#3F3D56" transform="translate(313.171300, 244.813200) rotate(60.113473) translate(-313.171300, -244.813200) " x="303.076653" y="234.186727" width="20.1892947" height="21.2529454"></rect>
            <rect id="Rectangle" fill="#3F3D56" transform="translate(354.930757, 113.532347) rotate(150.990000) translate(-354.930757, -113.532347) " x="344.870757" y="102.942347" width="20.12" height="21.18"></rect>
            <rect id="Rectangle" fill="#3F3D56" transform="translate(392.518798, 293.347483) rotate(1.990000) translate(-392.518798, -293.347483) " x="382.458798" y="282.757483" width="20.12" height="21.18"></rect>
            <rect id="Rectangle" fill="#3F3D56" transform="translate(442.043451, 282.821549) rotate(-29.010000) translate(-442.043451, -282.821549) " x="431.983451" y="272.231549" width="20.12" height="21.18"></rect>
            <rect id="Rectangle" fill="#3F3D56" transform="translate(349.175859, 279.572802) rotate(-147.010000) translate(-349.175859, -279.572802) " x="339.115859" y="268.982802" width="20.12" height="21.18"></rect>
            <rect id="Rectangle" fill="#3F3D56" transform="translate(302.674654, 195.386514) rotate(1.990000) translate(-302.674654, -195.386514) " x="290.494654" y="186.386514" width="24.36" height="18"></rect>
            <rect id="Rectangle" fill="#3F3D56" transform="translate(494.261803, 202.015215) rotate(-178.010000) translate(-494.261803, -202.015215) " x="482.081803" y="193.015215" width="24.36" height="18"></rect>
            <path d="M176.77,637.11 C174.292579,637.41237 171.890445,638.161131 169.68,639.32 C166.68,641.15 164.83,644.38 163.51,647.64 C160.2,655.82 159.51,664.8 159.37,673.64 C159.25,680.76 159.49,688.05 162.04,694.69 C162.739421,696.791989 163.952813,698.685981 165.57,700.2 C166.992599,701.31889 168.640209,702.117111 170.4,702.54 C174.2,703.54 178.61,703.54 181.72,701.14 C185.18,698.43 186.05,693.66 186.78,689.33 C187.78,683.49 189.17,677.33 193.51,673.26 C196.73,670.26 201.34,668.76 203.68,665.04 C206.47,660.62 205,654.85 203.22,649.93 C201.67,645.67 199.4,637.02 194.94,634.84 C190.48,632.66 181.41,636.27 176.77,637.11 Z" id="Path" fill="#FBBEBE"></path>
            <path d="M341.24,658.06 C339.891789,662.828732 337.50084,667.238325 334.24,670.97 C332.24,673.25 329.79,676.02 330.84,678.85 C331.267049,679.808031 331.902488,680.6587 332.7,681.34 C347.36,695.69 367.87,702.67 388.22,705.21 C388.547418,705.298809 388.892582,705.298809 389.22,705.21 C389.82,704.94 389.96,704.21 390.04,703.54 C390.364953,701.419041 390.364953,699.260959 390.04,697.14 C389.04,692.14 384.69,688.67 380.43,685.93 C376.17,683.19 371.51,680.53 369.13,676.06 C366.13,670.5 367.42,663.26 363.89,658.06 C361.03,653.83 355.72,652.06 350.68,651.23 C348.93,650.96 345.21,649.04 343.68,649.93 C342.12,650.83 341.77,656.32 341.24,658.06 Z" id="Path" fill="#FBBEBE"></path>
            <path d="M174.77,636.59 C174.776769,635.569353 174.013901,634.707355 173,634.59 C172.021032,634.489499 171.032074,634.616113 170.11,634.96 C167.816814,635.582756 165.475177,636.010941 163.11,636.24 C160.3,636.51 157.43,636.5 154.7,637.24 C151.97,637.98 149.3,639.61 148.19,642.24 C147.650094,643.742349 147.405612,645.334881 147.47,646.93 C147.413489,653.068329 148.146158,659.188467 149.65,665.14 C149.703587,665.623057 149.976512,666.054573 150.39,666.31 C150.74,666.45 151.16,666.31 151.51,666.47 C151.817397,666.65262 152.04829,666.940348 152.16,667.28 C153.85,671.08 154.24,675.28 154.69,679.44 C155.356667,685.566667 156.2,691.673333 157.22,697.76 C157.82,701.31 158.56,705.04 160.9,707.76 C163.46,710.76 167.52,712.05 171.43,712.58 C179.69,713.68 188.03,712.02 196.19,710.32 C197.745814,710.164635 199.20915,709.508414 200.36,708.45 C201.105487,707.51574 201.463491,706.330749 201.36,705.14 C201.17,701.06 197.42,698.14 194.02,695.9 L189.34,692.75 C189.013487,692.569548 188.732906,692.316341 188.52,692.01 C188.298183,691.543285 188.218212,691.021734 188.29,690.51 L188.59,684.51 C182.255944,684.610483 176.491141,688.188504 173.59,693.82 C172.94,695.11 172.33,696.62 170.98,697.12 C169.31,697.75 167.45,696.34 166.89,694.65 C166.500517,692.904875 166.552071,691.090198 167.04,689.37 C169.78,674.69 169.14,659.6 170.81,644.76 C170.913224,643.094757 171.424959,641.480561 172.3,640.06 C173.11,638.94 174.62,637.96 174.77,636.59 Z" id="Path" fill="#3F3D56"></path>
            <path d="M379.01,693.51 C379.7,694.65 380.77,695.51 381.41,696.69 C382.05,697.87 382.04,699.59 380.89,700.26 C380.211168,700.5591 379.455195,700.636098 378.73,700.48 C364.047536,698.657681 350.26363,692.423018 339.2,682.6 C337.363062,681.047544 335.736056,679.262544 334.36,677.29 C333.07,675.29 331.98,672.94 329.78,672.12 C328.465108,677.820247 327.794241,683.650081 327.78,689.5 C327.78,693.35 328.31,697.75 331.46,699.98 C332.722645,700.764025 334.108892,701.328668 335.56,701.65 L342.43,703.59 C343.641524,704.047783 344.952922,704.175471 346.23,703.96 C347.04,703.74 347.76,703.23 348.59,703.08 C349.494333,702.983897 350.408613,703.100322 351.26,703.42 L357.19,705.15 C359.196364,705.660768 361.159159,706.329523 363.06,707.15 C364.75,707.95 366.32,709 367.97,709.89 C370.736938,711.277777 373.60921,712.444742 376.56,713.38 L387,717 C389.853485,718.126886 392.836591,718.892818 395.88,719.28 C397.98,719.46 400.11,719.28 402.19,719.64 C403.77,719.91 405.3,720.48 406.9,720.64 C409.536363,720.712218 412.127556,719.945365 414.3,718.45 C415.146654,717.976721 415.880269,717.324999 416.45,716.54 C417.95,714.21 416.66,711.14 415.19,708.79 C412.48,704.45 409.09,700.38 404.61,697.9 C402.79,696.9 400.83,696.16 398.96,695.25 C393.64,692.67 389.61,688.36 384.58,685.41 C379.83,682.65 376.77,689.84 379.01,693.51 Z" id="Path" fill="#3F3D56"></path>
            <path d="M232.38,273.2 C226.864929,276.989099 220.545901,279.44688 213.92,280.38 C210.454111,280.811521 206.962156,280.99865 203.47,280.94 C188.908357,280.922505 174.372776,279.708419 160.01,277.31 C165.73,271.01 171.51,264.31 173.67,256.05 C174.740339,251.692984 174.961029,247.170529 174.32,242.73 C173.453832,237.033177 172.095413,231.42217 170.26,225.96 C176.386139,226.288514 182.528675,226.131356 188.63,225.49 C192.11,225.14 200.63,221.97 203.63,224.37 C206.44,226.6 204.32,234.49 204.27,238.13 C204.27,238.26 204.27,238.39 204.27,238.52 C204.427312,244.045493 205.617824,249.492681 207.78,254.58 C212.18,264.42 221.59,272.5 232.38,273.2 Z" id="Path" fill="#FBBEBE"></path>
            <path d="M204.31,238.08 C195.443118,243.87267 184.505132,245.549828 174.31,242.68 C173.443832,236.983177 172.085413,231.37217 170.25,225.91 C176.376139,226.238514 182.518675,226.081356 188.62,225.44 C192.1,225.09 200.62,221.92 203.62,224.32 C206.48,226.55 204.36,234.44 204.31,238.08 Z" id="Path" fill="#000000" opacity="0.1"></path>
            <circle id="Oval" fill="#FBBEBE" cx="184.27" cy="205.74" r="36.6"></circle>
            <path d="M339.56,390.94 C339.600497,396.950852 336.463704,402.536245 331.31,405.63 C328.480605,407.115438 325.448175,408.176789 322.31,408.78 C305.57,412.78 288.42,416.07 271.23,415.09 C267.51,414.88 263.73,414.44 260.39,412.81 C257.05,411.18 254.2,408.13 253.7,404.45 C253.677601,403.539454 253.498306,402.639595 253.17,401.79 C252.507497,400.852164 251.638505,400.078966 250.63,399.53 C247.475405,397.106941 245.97739,393.098007 246.77,389.2 C244.68,390.13 242.5,388.03 241.52,385.96 C240.54,383.89 239.77,381.39 237.67,380.52 C236.24,379.91 234.59,380.27 233.08,379.88 C230.67,379.26 229.2,376.88 227.5,375.1 C224.03,371.39 219.11,369.47 214.57,367.19 C201.1,360.4 190.12,349.64 179.37,339.06 C173.96,333.73 168.51,328.36 164.22,322.06 C163.01,320.29 161.92,318.47 160.89,316.6 C157.637681,310.364255 154.817705,303.912391 152.45,297.29 C151.09,293.75 149.71,290.01 150.27,286.29 C150.32,285.95 150.39,285.61 150.47,285.29 C151.166847,282.872927 152.291293,280.600326 153.79,278.58 C157.51,273.11 162.39,267.93 168.79,266.25 C175.19,264.57 181.58,266.6 188.08,267.98 C190.238354,268.460289 192.426658,268.794381 194.63,268.98 C201.52,269.47 208.34,267.62 215,265.78 L222.26,263.78 C225.9,262.78 227.72,258.38 231.4,257.61 C233.044024,257.373432 234.718341,257.458336 236.33,257.86 C243.8,259.28 251.33,261.11 257.9,264.91 C259.362701,265.759092 260.762926,266.711513 262.09,267.76 C266.77,271.46 270.47,276.39 271.83,282.15 C273.33,288.48 271.92,295.24 273.44,301.57 C274.68,306.8 277.82,311.36 280.9,315.77 L298.77,341.29 C302.758597,347.295626 307.152124,353.022246 311.92,358.43 C321.5,368.86 339.32,376.75 339.56,390.94 Z" id="Path" fill="#0F66DC"></path>
            <path d="M291.84,146.31 C292.58,142.82 293.13,139.16 295.06,136.15 C296.379411,134.257521 297.973602,132.572329 299.79,131.15 C302.86,128.56 306.12,126.07 309.93,124.81 C313.74,123.55 318.22,123.72 321.42,126.14 C324.62,128.56 325.97,132.73 326.47,136.71 C327.15,142.18 326.47,147.94 323.76,152.71 C320.66,158.12 315.28,161.71 310.76,166.05 C307.48859,169.185894 304.641134,172.735968 302.29,176.61 C301.221706,178.630495 299.926688,180.522697 298.43,182.25 C296.890868,183.992645 294.616254,184.901748 292.3,184.7 C290.38,184.39 288.8,183.05 287.3,181.77 C285.45,180.15 280.46,177.26 280.3,174.69 C280.18,172.61 284.07,167.89 285.02,165.94 C287.97439,159.653513 290.260265,153.07408 291.84,146.31 Z" id="Path" fill="#FBBEBE"></path>
            <path d="M420.47,570.27 C415.87,578.76 410.83,587.03 406.73,595.77 C404.34,600.88 402.27,606.14 399.61,611.11 C396.71,616.53 393.14,621.57 390.11,626.93 C382.48,640.44 378.23,655.68 374.3,670.69 C363.306994,669.043578 352.730324,665.309837 343.14,659.69 C342.49,659.31 341.87,658.91 341.27,658.48 C338.705525,656.642296 336.561391,654.279998 334.98,651.55 C338.61,637.82 342.34,623.86 349.73,611.73 C352.14,607.73 354.9,604.08 357.38,600.18 C364.57,588.88 366.05,574.62 374.26,564.04 C375.870441,561.850952 375.870441,558.869048 374.26,556.68 C373.31,555.45 371.8,554.28 372.08,552.76 C372.29,551.65 373.45,550.65 373,549.61 C372.79,549.11 372.28,548.84 371.88,548.48 C370.48,547.19 370.66,544.99 370.54,543.1 C370.23,538.31 367.36,534.1 364.54,530.19 C363.977475,529.263051 363.232389,528.460127 362.35,527.83 C361.61,527.38 360.73,527.18 359.99,526.72 C357.37,525.08 357.56,521.26 356.3,518.43 C354.66,514.7 350.53,512.8 347.82,509.77 C344.37,505.92 343.49,500.55 339.82,497.18 C339.44988,496.816296 339.052011,496.481953 338.63,496.18 C340.45,501.83 340.63,507.86 340.76,513.81 C341.11,534.2 336.01,555.31 338.4,575.57 C340.28,591.64 330.4,607.68 316.35,615.71 C310.95,618.79 305.05,620.85 299.19,622.94 C290.4,626.05 281.64,629.26 273.02,632.86 C266.926667,635.38 260.926667,638.096667 255.02,641.01 C247.718219,644.553961 240.611384,648.486254 233.73,652.79 C225.27,658.17 216.81,663.64 210.8,671.67 C204.99,671.51 199.67,668.02 195.99,663.52 C192.31,659.02 189.99,653.52 187.88,648.16 C186.01,643.51 184.17,638.71 184.03,633.7 C184.0811,632.601437 184.75758,631.629484 185.77,631.2 L225.94,609.91 L233.45,605.91 C249.9,597.18 266.94,589.11 283.39,580.39 C284.5,580.72 285.39,579.46 285.72,578.39 C286.05,577.32 286.28,575.94 287.32,575.46 C287.84,575.21 288.52,575.22 288.91,574.78 C289.164133,574.386357 289.263852,573.912693 289.19,573.45 C288.66,565.45 282.92,558.18 284.07,550.29 C284.56,546.93 286.29,543.62 285.54,540.29 C285.01,538 283.37,536.15 282.48,533.98 C280.48,529.13 282.48,523.29 280.32,518.54 C278.884661,515.416715 277.907912,512.102507 277.42,508.7 C276.38553,501.92357 274.314638,495.346634 271.28,489.2 C269.819499,486.092075 267.916396,483.212158 265.63,480.65 C264.42,479.35 263.06,478.19 261.91,476.84 C258.42,472.7 257.13,467.18 256.14,461.84 C254.34,452.17 253.14,442.14 255.34,432.56 C256.1,429.29 257.26,426.05 257.21,422.7 C257.16,418.27 255.21,413.1 258.29,409.9 C259.565707,408.754837 261.1159,407.959071 262.79,407.59 C269.87,405.48 277.24,404.52 284.57,403.59 L318.12,399.2 C321.96,398.69 325.89,398.2 329.28,396.29 C333.83,393.78 336.85,389.13 338.7,384.29 C344.59,388.59 346.79,396.6 351.49,402.15 C353.78,404.86 356.61,407.05 359.12,409.54 C362.188987,412.772488 365.000868,416.239694 367.53,419.91 C374.53,429.52 381.53,439.2 386.53,449.98 C389.14,455.58 391.16,461.42 393.24,467.23 C401.43,490.1 414.78,511.81 420.32,535.45 C421.68,541.23 425.21,546.45 425.76,552.36 C426.38,558.63 423.48,564.69 420.47,570.27 Z" id="Path" fill="#3F3D56"></path>
            <path d="M244.77,380.33 C243.948008,381.84987 243.521588,383.55211 243.53,385.28 C244.28,381.58 249.37,379.53 249.7,375.87 C249.85,374.18 249.54,374.26 248.5,375.15 C246.92,376.52 246.23,378.88 244.77,380.33 Z" id="Path" fill="#000000" opacity="0.1"></path>
            <path d="M260.28,391.57 C259.205267,392.477611 258.402363,393.664664 257.96,395 C257.094526,396.880398 256.927881,399.007774 257.49,401 C258.24,400.65 258.49,399.73 258.72,398.93 C259.088304,397.683833 259.623132,396.493083 260.31,395.39 C260.91,394.39 263.68,392.16 263.67,391.11 C263.64,389.5 261.02,391 260.28,391.57 Z" id="Path" fill="#000000" opacity="0.1"></path>
            <path d="M262.07,267.69 C259.71778,269.714217 257.124872,271.440583 254.35,272.83 C247.1,276.5 239.07,278.44 231.77,282 C228.168664,283.845501 224.670181,285.885169 221.29,288.11 L199.59,301.86 C197.846644,302.858578 196.239948,304.078725 194.81,305.49 C192.2,308.27 192.21,313.16 189.81,316.14 C187.41,319.12 183.27,320.8 179.28,321 C175.283188,321.023682 171.313145,320.346778 167.55,319 C165.270928,318.318222 163.033761,317.503492 160.85,316.56 C158.566189,315.590647 156.404608,314.355458 154.41,312.88 C150.54,309.96 147.41,305.71 146.83,300.88 C146.569271,297.565605 147.008791,294.233434 148.12,291.1 C148.720715,289.061496 149.493493,287.077698 150.43,285.17 C150.963393,284.08488 151.578498,283.041876 152.27,282.05 C157.27,274.99 166.04,271.68 174.53,270.05 C178.99,269.18 183.53,268.65 188.04,267.89 C190.198354,268.370289 192.386658,268.704381 194.59,268.89 C201.48,269.38 208.3,267.53 214.96,265.69 L222.22,263.69 C225.86,262.69 227.68,258.29 231.36,257.52 C233.004024,257.283432 234.678341,257.368336 236.29,257.77 C243.76,259.19 251.29,261.02 257.86,264.82 C259.330191,265.674711 260.737139,266.633841 262.07,267.69 L262.07,267.69 Z" id="Path" fill="#000000" opacity="0.1"></path>
            <path d="M279.77,170.55 C278.84,179.4 271.37,185.9 266.77,193.55 C264.56,197.26 263.01,201.33 261.02,205.17 C258.739529,209.356736 256.201313,213.397843 253.42,217.27 L245.29,229.07 C240.51,236.01 235.68,243.01 229.57,248.82 C218.92,250.63 209.99,258.54 199.89,262.38 C191.81,265.45 183,265.87 174.52,267.52 C166.04,269.17 157.25,272.52 152.27,279.52 C150.4156,282.280842 149.011444,285.318681 148.11,288.52 C146.992324,291.648324 146.555917,294.979337 146.83,298.29 C147.44,303.11 150.53,307.35 154.4,310.29 C158.27,313.23 162.9,314.97 167.54,316.41 C171.304394,317.752003 175.273591,318.428763 179.27,318.41 C183.27,318.21 187.33,316.67 189.81,313.55 C192.29,310.43 192.17,305.68 194.81,302.9 C196.243555,301.488626 197.853566,300.268513 199.6,299.27 L221.3,285.52 C224.677847,283.309117 228.172967,281.282815 231.77,279.45 C239.07,275.88 247.1,273.95 254.35,270.28 C261.6,266.61 268.35,260.55 269.8,252.55 C274.22,227.97 291.23,207.25 305.8,186.95 C305.32,186.85 305.47,185.76 305.29,185.3 C303.43,180.48 299.29,176.85 294.63,174.56 C289.97,172.27 284.77,171.63 279.77,170.55 Z" id="Path" fill="#0F66DC"></path>
            <path d="M203.05,170.73 C203.320528,168.063994 202.795081,165.377603 201.54,163.01 C199.13,159.01 194.08,157.6 189.54,156.66 C185.146667,155.76 180.733333,154.986667 176.3,154.34 C172.66,153.81 168.93,153.34 165.35,154.16 C160.35,155.25 156.28,158.56 151.65,160.62 C146.18,163.06 140.12,163.7 134.28,165.05 C128.44,166.4 122.46,168.69 118.8,173.43 C116.02,177.03 114.91,181.63 114.08,186.11 C107.15,223.5 114.61,261.85 116.03,299.85 C116.58,314.64 115.91,330.45 107.46,342.6 L132.07,341.95 C138.37,341.79 145.14,341.46 150.07,337.57 C154.43,334.15 156.49,328.64 158.36,323.42 C159.83,319.31 161.31,315.12 161.5,310.76 C161.89,301.83 156.82,293.06 158.5,284.27 C159.73,277.71 164.5,272.41 169.61,268.1 C174.72,263.79 180.4,260.1 184.53,254.82 C191.91,245.49 193.32,232.74 192.4,220.89 C191.85,213.84 190.59,206.79 191.2,199.74 C191.66,194.47 193.33,189.03 196.78,184.92 C200.66,180.26 202.71,177.34 203.05,170.73 Z" id="Path" fill="#3F3D56"></path>
            <path d="M201.54,163.01 C199.17,159.07 194.25,157.65 189.74,156.71 C192.137504,157.563112 194.189024,159.179035 195.58,161.31 C196.839676,163.675974 197.365398,166.363772 197.09,169.03 C196.75,175.63 194.7,178.55 190.78,183.22 C187.33,187.33 185.66,192.76 185.2,198.04 C184.59,205.09 185.85,212.14 186.4,219.19 C187.32,231.04 185.91,243.79 178.54,253.12 C174.4,258.36 168.72,262.12 163.62,266.4 C158.52,270.68 153.73,276.01 152.5,282.57 C150.85,291.36 155.92,300.13 155.5,309.06 C155.31,313.42 153.82,317.61 152.35,321.72 C150.49,326.94 148.42,332.44 144.06,335.86 C139.06,339.75 132.33,340.09 126.06,340.25 L108.63,340.71 C108.24,341.35 107.84,341.99 107.41,342.6 L132.02,341.95 C138.32,341.79 145.09,341.46 150.02,337.57 C154.38,334.15 156.44,328.64 158.31,323.42 C159.78,319.31 161.26,315.12 161.45,310.76 C161.84,301.83 156.77,293.06 158.45,284.27 C159.68,277.71 164.45,272.41 169.56,268.1 C174.67,263.79 180.35,260.1 184.48,254.82 C191.86,245.49 193.27,232.74 192.35,220.89 C191.8,213.84 190.54,206.79 191.15,199.74 C191.61,194.47 193.28,189.03 196.73,184.92 C200.65,180.26 202.73,177.34 203.04,170.73 C203.313589,168.064991 202.791633,165.378658 201.54,163.01 Z" id="Path" fill="#000000" opacity="0.1"></path>
            <path d="M386.44,548.38 L341.27,658.53 C338.705525,656.692296 336.561391,654.329998 334.98,651.6 C338.61,637.87 342.34,623.91 349.73,611.78 C352.14,607.78 354.9,604.13 357.38,600.23 C364.57,588.93 366.05,574.67 374.26,564.09 C375.870441,561.900952 375.870441,558.919048 374.26,556.73 C373.31,555.5 371.8,554.33 372.08,552.81 C372.29,551.7 373.45,550.7 373,549.66 C372.79,549.16 372.28,548.89 371.88,548.53 C370.48,547.24 370.66,545.04 370.54,543.15 C370.23,538.36 367.36,534.15 364.54,530.24 C363.977475,529.313051 363.232389,528.510127 362.35,527.88 C361.61,527.43 360.73,527.23 359.99,526.77 C357.37,525.13 357.56,521.31 356.3,518.48 C354.66,514.75 350.53,512.85 347.82,509.82 C344.37,505.97 343.49,500.6 339.82,497.23 L339.51,496.45 L343.03,475.2 L386.44,548.38 Z" id="Path" fill="#000000" opacity="0.1"></path>
        </g>
    </g>
</svg>