<?xml version="1.0" encoding="UTF-8"?>
<svg width="1004px" height="774px" viewBox="0 0 1004 774" version="1.1" xmlns="http://www.w3.org/2000/svg" xmlns:xlink="http://www.w3.org/1999/xlink">
    <!-- Generator: Sketch 55 (78076) - https://sketchapp.com -->
    <title>undraw_questions</title>
    <desc>Created with Sketch.</desc>
    <g id="Page-1" stroke="none" stroke-width="1" fill="none" fill-rule="evenodd">
        <g id="undraw_questions" fill-rule="nonzero">
            <path d="M439.53,12.24 C484.7,-4.55 539.69,9.89 586.65,30.95 C734.14,97.11 841.59,222.7 926.96,350.65 C957.87,396.98 987.23,445.35 998.85,497.07 C1022.51,602.34 960.8,711.32 855.85,749.51 C820.16,762.51 780.95,767.84 741.68,770.81 C671.85,776.1 599.55,774 530.28,754.41 C480.88,740.41 434.15,717.89 389.33,693.01 C264.16,623.49 149.85,533.21 67.54,422.93 C31.44,374.56 0.9,320.03 0.02,264.22 C-0.86,208.41 35.51,152.33 95.35,142.84 C120.09,138.92 146.26,143 171.79,147.2 C209.38,153.39 247.48,159.9 284.64,157.2 C323.03,154.39 372.96,139.39 379.96,102.74 C387.37,63.39 394.42,29.01 439.53,12.24 Z" id="Path" fill="#0F66DC" opacity="0.1"></path>
            <path d="M781.86,571.61 C781.66,572.04 780.86,572.41 779.72,572.74 C775.29,566.81 769.11,559.2 766.08,558.53 L767,557.68 C767.953983,557.590922 768.91191,557.550869 769.87,557.56 C769.87,557.56 782.59,570.03 781.86,571.61 Z" id="Path" fill="#000000" opacity="0.1"></path>
            <path d="M795.77,511.73 C798.53693,509.393745 802.019651,508.074051 805.64,507.99 C803.32,508.39 800.88,508.9 799.18,510.52 C798.512247,511.221401 797.91287,511.984853 797.39,512.8 C796.81,513.63 792.09,519.63 791.39,518.68 C790.22,517.29 794.82,512.54 795.77,511.73 Z" id="Path" fill="#000000" opacity="0.1"></path>
            <path d="M626.13,402.69 L556.96,402.69 L556.96,334.53 L626.18,334.53 L626.13,402.69 Z M625.13,299.92 L557.96,299.92 C557.96,194 658.64,200.19 658.64,133.18 C658.64,96.27 628.43,66.7 591.52,66.7 C554.61,66.7 524.41,98.58 524.41,134.23 L457.29,134.23 C457.228811,98.6112675 471.351209,64.4337781 496.537494,39.2474936 C521.723778,14.0612091 555.901267,-0.061189279 591.52,-1.77635684e-14 C665.66,-1.77635684e-14 725.75,59.15 725.75,133.18 C725.75,216.97 625.08,226.51 625.08,299.92 L625.13,299.92 Z" id="Shape" fill="#0F66DC"></path>
            <path d="M281.14,382.39 L263.3,382.39 L263.3,364.77 L281.14,364.77 L281.14,382.39 Z M280.87,355.89 L263.57,355.89 C263.57,328.59 289.52,330.18 289.52,312.89 C289.501477,308.32122 287.668065,303.947078 284.423388,300.730533 C281.17871,297.513988 276.788768,295.718737 272.22,295.74 C262.725592,295.959289 255.102582,303.64413 254.96,313.14 L237.66,313.14 C237.898845,294.250171 253.24102,279.041539 272.132215,278.967841 C291.023411,278.894143 306.48378,293.982609 306.87,312.87 C306.82,334.47 280.87,336.93 280.87,355.85 L280.87,355.89 Z" id="Shape" fill="#0F66DC" opacity="0.1"></path>
            <path d="M416.22,504.8 L398.38,504.8 L398.38,487.23 L416.22,487.23 L416.22,504.8 Z M415.96,478.31 L398.66,478.31 C398.66,451 424.61,452.6 424.61,435.31 C424.591483,430.742131 422.757751,426.36901 419.512783,423.154052 C416.267814,419.939095 411.877844,418.146075 407.31,418.17 C397.772766,418.341812 390.09341,426.052151 389.96,435.59 L372.66,435.59 C372.898845,416.700171 388.24102,401.491539 407.132215,401.417841 C426.023411,401.344143 441.48378,416.432609 441.87,435.32 C441.9,456.92 415.96,459.39 415.96,478.31 Z" id="Shape" fill="#0F66DC" opacity="0.1"></path>
            <path d="M498.36,288.1 L485.43,288.1 L485.43,275.39 L498.36,275.39 L498.36,288.1 Z M498.17,268.89 L485.63,268.89 C485.63,249.11 504.44,250.26 504.44,237.74 C504.424125,234.430086 503.094023,231.262049 500.742308,228.932839 C498.390594,226.603628 495.209913,225.304049 491.9,225.32 C485.001909,225.459484 479.455614,231.041161 479.36,237.94 L466.82,237.94 C466.784273,228.979779 471.531482,220.681133 479.273397,216.170083 C487.015313,211.659032 496.575755,211.620912 504.353397,216.070083 C512.13104,220.519253 516.944273,228.779779 516.98,237.74 C516.96,253.39 498.17,255.18 498.17,268.89 L498.17,268.89 Z" id="Shape" fill="#0F66DC" opacity="0.1"></path>
            <path d="M719.2,306.04 L711.89,306.04 L711.89,298.84 L719.2,298.84 L719.2,306.04 Z M719.09,295.19 L711.96,295.19 C711.96,284.01 722.59,284.66 722.59,277.58 C722.590122,275.70954 721.841653,273.916831 720.511544,272.601752 C719.181436,271.286673 717.380338,270.558623 715.51,270.58 C711.612544,270.660328 708.4784,273.812153 708.42,277.71 L701.33,277.71 C701.502096,270.02562 707.765178,263.877419 715.451426,263.847596 C723.137675,263.817772 729.448279,269.917187 729.68,277.6 C729.72,286.39 719.09,287.44 719.09,295.19 L719.09,295.19 Z" id="Shape" fill="#0F66DC" opacity="0.1"></path>
            <path d="M830.96,633.51 L823.65,633.51 L823.65,626.31 L830.96,626.31 L830.96,633.51 Z M830.85,622.66 L823.76,622.66 C823.76,611.47 834.4,612.13 834.4,605.05 C834.372476,601.160281 831.199753,598.027833 827.31,598.05 C823.410335,598.125163 820.273223,601.279974 820.22,605.18 L813.13,605.18 C813.302096,597.49562 819.565178,591.347419 827.251426,591.317596 C834.937675,591.287772 841.248279,597.387187 841.48,605.07 C841.52,613.9 830.89,614.91 830.89,622.66 L830.85,622.66 Z" id="Shape" fill="#0F66DC" opacity="0.1"></path>
        </g>
    </g>
</svg>