<?xml version="1.0" encoding="UTF-8"?>
<svg width="700px" height="661px" viewBox="0 0 700 661" version="1.1" xmlns="http://www.w3.org/2000/svg" xmlns:xlink="http://www.w3.org/1999/xlink">
    <!-- Generator: Sketch 55 (78076) - https://sketchapp.com -->
    <title>undraw_fingerprint_swrc</title>
    <desc>Created with Sketch.</desc>
    <g id="Page-1" stroke="none" stroke-width="1" fill="none" fill-rule="evenodd">
        <g id="undraw_fingerprint_swrc" fill-rule="nonzero">
            <path d="M684.155368,269.064725 C645.248939,115.995097 510.81497,5.50024283 353.018589,1.06839096 C269.596374,-1.27458749 181.812907,26.4074299 117.900081,123.276942 C3.64899952,296.441641 124.921079,416.103763 209.468767,472.964812 C250.315551,500.490989 287.120781,533.588848 318.818414,571.299728 C375.927606,639.104721 485.792727,723.361956 616.637064,591.343865 C711.473264,495.65693 710.070891,371.024179 684.155368,269.064725 Z" id="Path" fill="#F2F2F2"></path>
            <path d="M14.9,250.3228 C9.88797011,250.342303 5.24719577,247.683296 2.72946284,243.349493 C0.211729905,239.01569 0.200495366,233.667141 2.7,229.3228 C20.5,199.3228 74.6,129.2228 192.8,129.2228 C244,129.2228 288.9,142.8228 326.2,169.6228 C356.9,191.6228 374.1,216.5228 382.3,228.5228 C384.400199,231.580386 385.190835,235.350716 384.495898,238.99444 C383.800961,242.638165 381.678134,245.852834 378.6,247.9228 C372.151566,252.244267 363.429221,250.597702 359,244.2228 C344.1,222.6228 298.9,157.0228 192.8,157.0228 C89.2,157.0228 42.4,217.4228 27.1,243.3228 C24.6162389,247.708425 19.9396457,250.391717 14.9,250.3228 L14.9,250.3228 Z" id="Path" fill="#0F66DC"></path>
            <path d="M252.3,524.7228 C251.121109,524.738072 249.945046,524.603665 248.8,524.3228 C163.1,502.8228 131.1,416.2228 129.8,412.6228 L129.6,411.8228 C128.9,409.3228 111.7,349.9228 138.1,315.1228 C150.2,299.2228 168.6,291.1228 192.9,291.1228 C215.5,291.1228 231.8,298.2228 243,312.9228 C252.2,324.9228 255.9,339.7228 259.5,354.0228 C267,383.7228 272.4,399.3228 303.6,400.9228 C317.3,401.6228 326.3,393.5228 331.4,386.6228 C345.2,367.8228 347.6,337.1228 337.2,310.1228 C323.8,275.1228 276.4,209.2228 192.8,209.2228 C157.1,209.2228 124.3,220.8228 98,242.6228 C76.2,260.7228 58.9,286.2228 50.6,312.4228 C35.2,361.2228 55.4,437.9228 55.6,438.6228 C56.5494144,442.204114 56.0265897,446.016412 54.1480682,449.209899 C52.2695468,452.403385 49.1914811,454.712601 45.6,455.6228 C38.0971256,457.603037 30.393804,453.194777 28.3,445.7228 C27.4,442.2228 5.8,360.4228 23.6,304.0228 C43,242.92275 102.8,181.3228 192.8,181.3228 C234.4,181.3228 273.7,195.6228 306.5,222.6228 C331.9,243.6228 352.7,271.8228 363.5,300.0228 C377.3,336.0228 373.6,376.4228 354.1,402.8228 C341.1,420.4228 322.6,429.6228 302.1,428.6228 C248.7,425.9228 239.1,388.2228 232.1,360.7228 C224.9,332.5228 220.3,318.9228 192.8,318.9228 C177.7,318.9228 167.1,323.1228 160.5,331.8228 C151.5,343.7228 150.8,362.3228 151.8,375.8228 C151.81,375.9638 151.8202,376.104527 151.8306,376.24498 C153.153606,393.420057 158.354096,410.071523 167.04087,424.94679 C180.92299,448.88293 209.08179,485.59208 255.8,497.32279 C259.403229,498.195282 262.508204,500.471886 264.423904,503.645937 C266.339603,506.819987 266.907065,510.628109 266,514.22279 C264.329828,520.415888 258.714354,524.719719 252.3,524.72279 L252.3,524.7228 Z" id="Path" fill="#0F66DC"></path>
            <path d="M142.3,518.3228 C138.409734,518.324873 134.688042,516.735024 132,513.9228 C97.7,477.5228 78.3,436.8228 71,385.9228 L71,385.6228 C66.9,351.9228 72.9,304.2228 102.3,271.4228 C124,247.2228 154.5,234.9228 192.8,234.9228 C238.1,234.9228 273.7,256.2228 295.9,296.4228 C305.93283,314.91064 312.507213,335.074341 315.3,355.9228 C315.985669,363.616992 310.363772,370.435043 302.6799,371.228041 C294.996029,372.021038 288.100171,366.494854 287.2,358.8228 C284.767303,341.390773 279.175823,324.548558 270.7,309.1228 C253.5,278.4228 227.3,262.8228 192.7,262.8228 C162.8,262.8228 139.4,271.9228 123.3,289.9228 C100.1,315.8228 95.6,355.7228 98.8,382.1228 C105.2,427.1228 122.3,462.9228 152.5,494.9228 C155.046717,497.614727 156.406709,501.216012 156.275118,504.919378 C156.143526,508.622744 154.531357,512.118419 151.8,514.6228 C149.20129,516.990824 145.815772,518.309394 142.3,518.3228 L142.3,518.3228 Z" id="Path" fill="#0F66DC"></path>
            <circle id="Oval" fill="#0F66DC" cx="193" cy="369.7228" r="18"></circle>
        </g>
    </g>
</svg>